<svg width="20" height="20" viewBox="0 0 20 20" fill="none" xmlns="http://www.w3.org/2000/svg">
<path d="M4.47843 9.6202C4.47843 9.31869 4.23408 9.07434 3.93257 9.07434C3.63107 9.07434 3.38672 9.31869 3.38672 9.6202C3.38672 9.9217 3.63107 10.1661 3.93257 10.1661C4.23408 10.1661 4.47843 9.9217 4.47843 9.6202Z" fill="#28336E"/>
<path d="M17.373 9.6202C17.373 9.31869 17.1286 9.07434 16.8271 9.07434C16.5256 9.07434 16.2812 9.31869 16.2812 9.6202C16.2812 9.9217 16.5256 10.1661 16.8271 10.1661C17.1286 10.1661 17.373 9.9217 17.373 9.6202Z" fill="#28336E"/>
<path d="M10.3779 3.71709C10.6794 3.71709 10.9237 3.4727 10.9237 3.17123C10.9237 2.86976 10.6794 2.62537 10.3779 2.62537C10.0764 2.62537 9.83203 2.86976 9.83203 3.17123C9.83203 3.4727 10.0764 3.71709 10.3779 3.71709Z" fill="#28336E"/>
<path d="M10.3779 16.6152C10.6794 16.6152 10.9237 16.3708 10.9237 16.0694C10.9237 15.7679 10.6794 15.5235 10.3779 15.5235C10.0764 15.5235 9.83203 15.7679 9.83203 16.0694C9.83203 16.3708 10.0764 16.6152 10.3779 16.6152Z" fill="#28336E"/>
<path d="M9.61314 8.84455C9.41324 9.04234 9.28906 9.31656 9.28906 9.62018C9.28906 10.2232 9.778 10.7121 10.381 10.7121C10.4781 10.7121 10.5706 10.6954 10.6602 10.6715L12.9638 12.9753C13.1771 13.1886 13.5226 13.1886 13.7359 12.9753C13.9492 12.762 13.9492 12.4165 13.7359 12.2032L11.432 9.89935C11.4558 9.80974 11.4725 9.71731 11.4725 9.62018C11.4725 9.31656 11.3483 9.04258 11.1484 8.84455V7.39464C11.1484 6.97061 10.8046 6.62677 10.3805 6.62677C9.95651 6.62677 9.61267 6.97061 9.61267 7.39464V8.84455H9.61314Z" fill="#28336E"/>
<path d="M4.33982 11.3206C1.94307 11.3206 0 13.2634 0 15.6602C0 18.0569 1.94284 20 4.33982 20C6.73679 20 8.67939 18.0569 8.67939 15.6602C8.67939 13.2634 6.73656 11.3206 4.33982 11.3206ZM6.98303 15.4421L4.21846 18.2067C4.07547 18.3497 3.88803 18.4212 3.70059 18.4212C3.51315 18.4212 3.32571 18.3497 3.18272 18.2067L1.54209 16.5661C1.25611 16.2799 1.25611 15.8163 1.54209 15.5301C1.82831 15.2441 2.29185 15.2441 2.57807 15.5301L3.70059 16.6529L5.94728 14.4062C6.2335 14.1202 6.69704 14.1202 6.98326 14.4062C7.26924 14.6924 7.26901 15.1559 6.98303 15.4421Z" fill="#28336E"/>
<path d="M10.3816 0C5.06861 0 0.761719 4.30715 0.761719 9.61995C0.761719 10.3032 0.834155 10.9694 0.96962 11.6124C1.44657 11.2145 1.99525 10.9 2.59309 10.6898C2.54534 10.3398 2.51877 9.98307 2.51877 9.61995C2.51877 5.27728 6.0392 1.75682 10.3818 1.75682C14.7245 1.75682 18.2449 5.27728 18.2449 9.61995C18.2449 13.9626 14.7245 17.4831 10.3818 17.4831C10.0187 17.4831 9.66219 17.4563 9.312 17.4088C9.10175 18.0066 8.78731 18.555 8.38938 19.0322C9.03237 19.1677 9.69864 19.2401 10.3818 19.2401C15.6948 19.2401 20.002 14.933 20.002 9.61995C20.002 4.30692 15.6946 0 10.3816 0Z" fill="#28336E"/>
</svg>
