<svg width="110" height="135" viewBox="0 0 110 135" fill="none" xmlns="http://www.w3.org/2000/svg">
<path d="M21.1174 87.9847C42.487 82.7665 49.3514 63.031 49.3514 63.031C49.3514 63.031 34.6975 48.5398 13.3279 53.758C3.75413 56.0934 -1.6812 65.5119 0.466497 74.9646C2.61419 84.4173 11.5354 90.3285 21.1174 87.9931" fill="#D6EEFA"/>
<path d="M96.6246 69.6775C75.2385 74.8273 60.626 60.2935 60.626 60.2935C60.626 60.2935 67.5399 40.5753 88.926 35.417C98.508 33.1073 107.413 39.0439 109.544 48.5052C111.667 57.9664 106.207 67.368 96.6246 69.6691" fill="#D6EEFA"/>
<path d="M93.8335 77.7448C93.2553 75.1699 92.3467 72.7575 91.1737 70.5248C91.1737 70.5248 91.1737 70.5246 91.182 70.5161C91.182 70.5161 91.1572 70.482 91.1242 70.4392C90.5707 69.3955 89.9594 68.3949 89.2986 67.4368C86.4653 62.5094 80.9969 51.8762 76.9328 37.1026C69.6968 9.59997 45.6425 16.0756 44.7421 16.2895C43.8335 16.5119 19.5067 21.764 24.8181 49.7372C27.4862 64.7161 27.1723 76.6669 26.7511 82.4497C26.1315 86.1966 26.2058 90.0805 27.0732 93.9385C30.9473 111.073 49.0293 121.33 67.4664 116.864C85.9036 112.39 97.7076 94.8792 93.8335 77.7531V77.7448Z" fill="#62BFED"/>
<path d="M43.5028 90.0379C49.3347 90.0379 55.216 89.3534 60.9405 87.959C72.8519 85.0676 83.4417 79.3959 91.9169 72.0476C91.6773 71.5258 91.4378 71.0125 91.1735 70.5163C91.1735 70.5163 91.1652 70.4992 91.1569 70.4992C90.587 69.4128 89.9427 68.3694 89.2488 67.3685C88.9927 66.9237 88.7119 66.4274 88.4227 65.897C80.6084 72.886 70.6382 78.3095 59.3628 81.0469C48.5417 83.6817 37.1423 83.545 26.8334 80.8076C26.8004 81.4235 26.7591 82.0052 26.726 82.5185C26.5278 83.7332 26.4039 84.9651 26.3626 86.2055C26.3626 86.2141 26.3626 86.231 26.3626 86.231C26.3378 86.8041 26.3378 87.3861 26.3543 87.9678C31.8887 89.3279 37.6627 90.0379 43.4946 90.0379H43.5028Z" fill="#FDD700"/>
<path d="M63.9232 101.56C74.8352 99.2164 85.5406 93.9982 94.4453 87.052C94.7096 84.1691 94.5527 81.235 93.9497 78.3008C85.2019 86.1281 73.8522 92.1762 62.5272 94.6057C50.3679 97.2233 37.8865 97.2061 27.2637 94.6654C27.9823 97.5226 29.0975 100.174 30.5513 102.595C34.9128 103.34 39.4725 103.716 44.1396 103.708C50.591 103.708 57.2571 102.998 63.9315 101.56H63.9232Z" fill="#FDD700"/>
<path d="M92.3461 95.7437C84.4161 101.689 74.9993 106.189 65.6073 108.207C55.5957 110.363 45.3611 110.723 36.126 109.371C44.0064 116.531 55.6618 119.722 67.4741 116.856C79.2782 113.991 88.3563 105.778 92.3461 95.7437Z" fill="#FDD700"/>
<path d="M34.6563 11.6017C35.7549 10.2758 36.0275 8.34227 35.1849 6.70837C34.0863 4.58686 31.5421 3.79122 29.4936 4.92897C27.445 6.06671 26.6768 8.70161 27.7754 10.8231C28.5932 12.4057 30.2205 13.2525 31.8478 13.1071L35.8293 21.157C36.1101 21.7216 36.6636 22.0467 37.2418 22.0467C37.4814 22.0467 37.7292 21.9868 37.9605 21.8671C38.7369 21.4565 39.0508 20.4641 38.646 19.66L34.6563 11.6017Z" fill="#4D98D3"/>
<path d="M53.8859 4.49337C53.9602 2.08956 52.1347 0.0792611 49.8135 0.00227082C47.4924 -0.0747195 45.5512 1.81555 45.4768 4.21936C45.419 6.06713 46.4929 7.67565 48.0458 8.36001L47.9301 17.4107C47.9219 18.3175 48.6158 19.0617 49.4914 19.0702H49.5162C50.3835 19.0702 51.0856 18.3515 51.1021 17.4533L51.2178 8.41139C52.7377 7.79547 53.8363 6.28981 53.8942 4.49337H53.8859Z" fill="#4D98D3"/>
<path d="M50.0608 56.1368C49.1852 56.3421 48.3427 56.453 47.5414 56.453C45.9141 56.453 44.4521 56.0169 43.2213 55.1786C41.4948 53.9895 40.264 52.022 39.6941 49.4728C39.5289 48.7713 39.9501 48.0784 40.6358 47.9073L54.9758 44.4253C55.6531 44.2542 56.3305 44.6992 56.4874 45.4007C57.7017 50.7729 55.2318 54.8876 50.0526 56.1451L50.0608 56.1368Z" fill="#281E1E"/>
<path d="M59.6841 41.782C59.6263 41.782 59.5684 41.782 59.5106 41.7649L56.0248 41.1149C55.6531 41.0465 55.3556 40.7555 55.2648 40.3706C55.1739 39.9856 55.3226 39.5922 55.62 39.3526L58.4698 37.1626C58.8911 36.8376 59.4859 36.9315 59.7998 37.3677C60.1137 37.804 60.0228 38.4202 59.6015 38.7453L58.5194 39.5749L59.8493 39.823C60.3615 39.9171 60.7084 40.4302 60.6175 40.9691C60.5349 41.4482 60.1302 41.782 59.6841 41.782Z" fill="#281E1E"/>
<path d="M33.6805 45.606C33.9944 47.0004 35.3492 47.8729 36.6956 47.5479C38.042 47.2228 38.8846 45.8195 38.5707 44.4252C38.2568 43.0308 36.9021 42.1584 35.5557 42.492C34.2092 42.8257 33.3667 44.22 33.6888 45.6143L33.6805 45.606Z" fill="#281E1E"/>
<path d="M67.5405 62.3978C66.6236 62.1839 66.0041 61.7047 65.4259 60.9091C64.7733 60.0024 64.5255 58.8477 64.5999 57.7271C64.6659 56.8289 65.3763 55.2293 65.3763 55.2293C65.3763 55.2293 66.1032 56.2726 67.334 55.5626C68.5318 54.8697 68.8952 53.2871 68.3748 51.9783C67.8379 50.6352 66.7641 49.9937 65.682 49.7114C63.9721 49.2666 62.1465 49.7543 60.7505 50.8664C56.0173 54.6304 55.9016 59.455 56.1412 61.6706C54.5387 64.3995 50.3837 66.1189 48.8142 66.5552C39.8104 68.7537 34.8873 65.3489 34.5899 65.135C32.7313 63.7235 30.1127 64.1173 28.725 66.0335C27.3207 67.9668 27.6925 70.7043 29.5593 72.1586C29.8154 72.3554 34.6312 76.0165 43.0898 76.0165C45.4192 76.0165 48.0295 75.7343 50.9041 75.0328C51.8293 74.7847 58.4211 72.8597 62.3447 67.7013C63.526 67.7954 64.4098 67.6587 64.4098 67.6587C64.9385 67.5732 68.3501 67.8557 69.8534 67.0259C71.1668 66.2988 71.1999 63.2445 67.5405 62.389V62.3978Z" fill="#4D98D3"/>
<path d="M95.6675 50.6357C94.5854 48.5056 92.0329 47.6845 89.9678 48.7966C89.9348 48.8137 87.1758 50.2851 83.4008 51.1662C81.9883 49.2757 79.5763 47.2481 75.6113 46.7177C73.8601 46.4867 72.0428 47.0086 70.779 48.2832C69.9777 49.0959 69.3582 50.2081 69.5482 51.6453C69.7382 53.0482 70.8203 54.22 72.1915 54.2029C73.5958 54.1772 73.7197 52.9026 73.7197 52.9026C73.7197 52.9026 75.1157 53.9118 75.603 54.6561C76.2143 55.58 76.5612 56.7095 76.4291 57.8302C76.3134 58.8225 76.0078 59.5578 75.3222 60.2165C72.5798 62.8598 74.0831 65.4863 75.57 65.4264C77.2716 65.3666 80.0802 63.3478 80.5841 63.1425C80.5841 63.1425 83.1613 62.0902 84.5821 59.8318C89.8522 58.7026 93.7015 56.624 93.8915 56.5127C95.9483 55.3836 96.7331 52.7487 95.651 50.6186L95.6675 50.6357Z" fill="#4D98D3"/>
<path d="M74.3881 56.6325C74.1155 55.5803 73.0664 54.956 72.0504 55.2383C71.1087 55.5034 70.5305 56.453 70.6709 57.4283C70.3075 56.53 69.3575 56.0081 68.4159 56.2733C67.3998 56.5556 66.7968 57.6421 67.0694 58.6943C67.6229 61.2606 71.9265 62.2702 71.9265 62.2702C72.1 62.082 75.1481 59.139 74.3881 56.6325Z" fill="#F55496"/>
<path d="M96.081 37.4104C96.081 34.8012 95.1311 31.4564 90.6127 30.9089C87.9941 30.5924 84.2191 32.2949 84.5165 35.3745C84.2109 32.235 81.6666 29.2751 78.189 29.5146C73.9349 29.8054 71.3412 32.1405 70.763 36.0842C70.1269 40.4127 72.1837 43.2357 75.3144 46.1185C78.2303 48.7961 75.4218 54.716 75.4218 54.716C75.6118 54.314 77.7926 53.9804 78.1725 53.8606C80.1633 53.2105 82.121 52.4491 84.0044 51.5081C88.0189 49.4978 91.6865 47.0513 94.2555 43.0564C94.8998 42.0555 96.0728 39.1298 96.0728 37.4104H96.081Z" fill="#F55496"/>
<path d="M85.2595 7.90603C83.69 8.40219 82.2362 10.7291 83.3266 12.286C82.2114 10.6949 79.9481 9.92495 78.1473 11.1825C75.9418 12.7137 75.2562 14.8183 76.1401 17.128C77.1065 19.6687 79.0642 20.524 81.625 21.0544C84.0039 21.5505 84.2848 25.6482 84.2848 25.6482C84.2683 25.3745 85.3421 24.4847 85.5073 24.2965C86.3829 23.3042 87.209 22.2521 87.9359 21.14C89.4888 18.7618 90.7279 16.2469 90.9013 13.2614C90.9426 12.5086 90.4553 6.27212 85.2678 7.90603H85.2595Z" fill="#FFA1D0"/>
<path d="M98.9798 26.8799C99.4259 26.3923 99.8141 25.5883 99.0624 24.6644C98.6246 24.1255 97.6251 23.7574 97.1626 24.3904C97.6417 23.7488 97.6665 22.731 96.9726 22.1407C96.13 21.4221 95.2379 21.3878 94.4614 22.0208C93.6106 22.7137 93.5115 23.6204 93.6106 24.7325C93.7015 25.7676 92.165 26.3666 92.165 26.3666C92.2642 26.3238 92.735 26.6573 92.8259 26.7087C93.3132 26.9482 93.8088 27.162 94.321 27.3331C95.4114 27.6839 96.5183 27.8978 97.683 27.6155C97.9721 27.5471 98.6907 27.2133 98.9798 26.8883V26.8799Z" fill="#FFCAE5"/>
<path d="M62.3451 134.821C62.1634 134.872 61.9734 134.906 61.7751 134.932H61.6595C59.3301 135.129 57.2897 133.572 57.0832 131.416C56.9676 130.236 57.4219 129.123 58.248 128.294C59.3384 127.113 60.6352 125.146 60.693 123.691L60.1148 117.866C62.5351 117.789 64.9967 117.455 67.4665 116.857C67.863 116.754 68.2678 116.66 68.656 116.548C69.1104 120.535 69.606 124.829 69.606 124.829C69.606 124.906 69.5977 124.983 69.5977 125.069C69.606 125.154 69.6225 125.24 69.639 125.317C70.0851 129.842 66.8305 133.948 62.3534 134.821H62.3451Z" fill="#FDD700"/>
<path d="M93.8003 115.675C93.9738 120.389 90.8266 124.581 86.4734 125.128C85.6969 125.231 84.9287 125.248 84.1688 124.983C83.3262 124.701 82.5828 124.076 82.0541 123.255C80.782 121.613 77.0483 117.198 74.6445 114.324C77.2796 113.083 79.7081 111.553 81.9054 109.782C83.0205 111.176 84.4579 112.989 85.6061 114.512C86.0439 114.007 86.4403 113.477 86.7542 112.998C87.3407 111.989 88.299 111.313 89.4306 111.125C93.7095 110.415 93.8003 115.479 93.8003 115.675Z" fill="#FDD700"/>
</svg>
