<svg width="200" height="34" viewBox="0 0 200 34" fill="none" xmlns="http://www.w3.org/2000/svg">
<path d="M174.18 17.2783H149.115V14.9639H174.18V17.2783Z" fill="#0067AC"/>
<path d="M161.644 20.6444C164.869 20.6444 167.534 22.1254 167.534 24.5558C167.534 26.9861 164.869 28.4639 161.644 28.4639C158.424 28.4639 155.758 26.9878 155.758 24.5558C155.758 22.1238 158.424 20.6444 161.644 20.6444ZM161.644 30.606C167.381 30.606 171.86 28.1657 171.86 24.5558C171.86 20.9409 167.381 18.5056 161.644 18.5056C155.911 18.5056 151.431 20.9409 151.431 24.5558C151.431 28.1657 155.911 30.606 161.644 30.606Z" fill="#0067AC"/>
<path d="M172.437 10.785C172.437 10.785 166.956 9.74628 163.54 7.8643C164.11 7.18506 164.603 6.40476 164.888 5.68576H171.784V3.40617H151.696V5.68576H159.401C159.551 5.68576 159.796 5.80339 159.725 6.19768C159.615 6.79242 157.937 10.3062 150.297 11.7442L150.919 13.3727C155.745 12.9768 159.474 11.2588 161.953 9.33542C163.401 10.4338 166.558 12.5129 171.013 13.6494L172.437 10.785Z" fill="#0067AC"/>
<path d="M180.854 21.7781H184.385C185 21.7781 185.144 22.0929 185.144 22.6147V26.5195C185.166 27.0447 185.255 27.4688 186.116 27.4141H200V29.48H183.748C181.574 29.3971 181.289 28.3617 181.244 27.7703V23.1366C181.244 23.1366 181.284 22.131 180.854 21.7781Z" fill="#0067AC"/>
<path d="M198.451 2.57909H195.616C195.616 2.57909 195.951 2.83919 195.951 4.82223L195.952 12.5722H192.197C192.711 11.7389 192.679 10.4433 192.679 10.4433V4.64C192.679 4.03531 192.228 3.38755 191.258 3.38755H178.891V5.72181H188.995V11.0447C188.995 11.0447 189.071 12.5722 187.761 12.5722H176.843V14.7987H181.272V20.0206H185.148V14.7987H195.952V17.1926H189.124V19.4242H195.952V22.8071H199.739V3.5002C199.739 2.89883 199.346 2.57909 198.451 2.57909Z" fill="#0067AC"/>
<path d="M39.915 20.7915H50.4621V30.3091H54.5244V20.7915H65.0847V18.4787H39.915V20.7915Z" fill="#0067AC"/>
<path d="M52.4956 4.48482C55.306 4.48482 57.5793 6.25912 57.5793 9.06056C57.5793 11.862 55.306 13.6346 52.4956 13.6346C49.6769 13.6346 47.397 11.8637 47.397 9.06056C47.397 6.25912 49.6769 4.48482 52.4956 4.48482ZM52.4956 15.9971C57.6257 15.9971 61.7875 13.2039 61.7875 9.05228C61.7875 4.90561 57.6257 2.10914 52.4956 2.10914C47.3555 2.10914 43.1904 4.90561 43.1904 9.05228C43.1904 13.2039 47.3555 15.9971 52.4956 15.9971Z" fill="#0067AC"/>
<path d="M88.1082 2.59018H85.2646C85.2646 2.59018 85.6029 2.85193 85.6029 4.83829L85.6062 18.1928C85.6062 20.2205 82.3912 20.1725 82.3912 20.1725H73.0943C72.2271 20.2288 72.1359 19.8031 72.116 19.2796V13.6634H80.1594C81.0464 13.6634 81.2487 13.342 81.2487 12.744V4.34294C81.2487 3.74157 81.0464 3.42349 80.1561 3.42349H67.7354V5.65835L77.2909 5.65669V11.4269H67.8166C67.8166 11.4269 68.1548 11.861 68.1548 13.0289V20.6927C68.1996 21.2908 68.4881 22.3229 70.6702 22.4074H81.5704C81.5704 22.4074 84.7407 22.5034 85.6062 21.6619V29.5874H89.3999V3.5146C89.3999 2.91323 89.0036 2.59018 88.1082 2.59018Z" fill="#0067AC"/>
<path d="M101.054 13.6875C100.372 13.6875 100.106 13.3114 100.106 12.8244V10.6326H115.622V8.52197H100.106V5.47699H115.859V3.35976H95.4629C95.4629 3.35976 95.9636 4.00918 95.9636 5.17548V13.6925C95.9636 14.4728 96.5539 15.7749 98.8089 15.7749H116.126V13.6875H101.054Z" fill="#0067AC"/>
<path d="M93.4688 20.6414H104.039V30.1606H108.093V20.6414H118.66V18.3303H93.4688V20.6414Z" fill="#0067AC"/>
<path d="M143.607 29.6782V12.4836H147.746V10.04H143.607V3.53584C143.607 2.93447 143.206 2.61308 142.312 2.61308H139.474C139.474 2.61308 139.81 2.87317 139.81 4.86284V29.6749L143.607 29.6782Z" fill="#0067AC"/>
<path d="M121.442 5.73085L127.328 5.73416C127.489 5.73416 127.925 5.74576 127.903 6.24773C127.716 8.62672 126.605 14.546 120.137 20.0048L121.355 21.4941C124.564 19.367 127.092 16.9963 128.966 14.3389C130.738 16.7041 132.818 18.8219 135.152 20.636L137.633 17.9373C137.633 17.9373 132.804 14.7713 130.375 12.056C130.826 11.2045 132.184 8.30036 132.38 5.73085H137.693V3.3237H121.442V5.73085Z" fill="#0067AC"/>
<path d="M34.0239 16.9959C34.0239 26.3876 26.4033 34 17.0153 34C7.6189 34 0 26.3876 0 16.9959C0 7.60912 7.6189 0 17.0153 0C26.4033 0 34.0239 7.60912 34.0239 16.9959Z" fill="white"/>
<path d="M17.0159 33.1421C25.9695 33.1421 33.2269 25.8858 33.2269 16.9431C33.2269 12.6463 31.5187 8.52539 28.478 5.48691C25.4372 2.44844 21.313 0.741219 17.0125 0.74078C8.05724 0.74078 0.799805 7.99206 0.799805 16.9431C0.799805 25.8941 8.05724 33.1421 17.0159 33.1421Z" fill="#0083CA"/>
<mask id="mask0_1008_889" style="mask-type:luminance" maskUnits="userSpaceOnUse" x="0" y="0" width="34" height="34">
<path d="M0.799805 16.9438C0.799805 25.8915 8.05558 33.1411 17.0159 33.1411C25.9695 33.1411 33.2286 25.8865 33.2286 16.9438C33.2286 14.8159 32.8091 12.7089 31.9941 10.743C31.179 8.77717 29.9844 6.99097 28.4784 5.48643C26.9725 3.98188 25.1846 2.78846 23.217 1.97432C21.2494 1.16017 19.1405 0.741245 17.0109 0.741463C8.05557 0.741463 0.799805 7.99274 0.799805 16.9438Z" fill="white"/>
</mask>
<g mask="url(#mask0_1008_889)">
<path d="M17.0787 24.7584C24.2051 24.7584 30.3102 26.7382 32.925 29.5645C33.8263 27.4946 34.2903 25.2612 34.2879 23.004C34.2879 13.71 26.5779 6.18044 17.0787 6.18044C7.58284 6.18044 -0.128906 13.7117 -0.128906 23.0073C-0.128906 25.335 0.355255 27.5499 1.23404 29.5645C3.84055 26.7382 9.95556 24.7584 17.0787 24.7584Z" fill="#0083CA"/>
<path d="M17.0766 6.32267C7.61225 6.32267 -0.076284 13.8092 -0.0878906 23.0236C-0.0878906 23.239 -0.0840218 23.4538 -0.0762841 23.6681C0.00183753 25.6925 0.458488 27.6845 1.27008 29.541C3.87161 26.7429 9.97005 24.7797 17.0766 24.7797C24.1831 24.7797 30.2749 26.7429 32.8848 29.541C33.7881 27.4849 34.2501 25.2625 34.2411 23.017C34.2295 13.8059 26.5476 6.32267 17.0766 6.32267Z" fill="#0085CC"/>
<path d="M17.0738 6.46696C7.64096 6.46696 -0.0227036 13.9038 -0.0442587 23.0371C-0.0464695 23.2535 -0.0431525 23.4678 -0.0343094 23.6798C0.0391123 25.6951 0.495455 27.678 1.3104 29.5229C3.90364 26.7464 9.98715 24.7964 17.0738 24.7964C24.1654 24.7964 30.239 26.7464 32.8422 29.5229C33.744 27.4782 34.2044 25.2665 34.1935 23.0321C34.172 13.9005 26.51 6.46696 17.0738 6.46696Z" fill="#0087CD"/>
<path d="M17.0716 6.61134C7.67028 6.61134 0.0298301 14.0001 -0.00167352 23.0555C-0.0149477 25.2749 0.444567 27.4717 1.34635 29.5C3.93628 26.7466 10.0032 24.8133 17.0716 24.8133C24.1433 24.8133 30.2036 26.7466 32.7985 29.5C33.7028 27.4702 34.1618 25.2706 34.1449 23.0489C34.1117 13.9968 26.4763 6.61134 17.0716 6.61134Z" fill="#0088CE"/>
<path d="M17.0721 6.7568C7.70057 6.7568 0.0849916 14.0992 0.0402233 23.0701C0.0391179 23.2811 0.0429867 23.492 0.0518298 23.703C0.122183 25.6968 0.575317 27.6585 1.38659 29.4814C3.96988 26.7463 10.0202 24.8328 17.0721 24.8328C24.1239 24.8328 30.1676 26.7463 32.7575 29.4814C33.656 27.4616 34.1138 25.2738 34.1006 23.0635C34.0542 14.0926 26.4436 6.75348 17.0721 6.7568Z" fill="#008ACF"/>
<path d="M17.0684 6.89932C7.73009 6.89932 0.139383 14.192 0.0830078 23.0817C0.0830078 23.2938 0.0857715 23.5037 0.0912984 23.7113C0.157137 25.6961 0.610554 27.6489 1.42606 29.46C3.9994 26.7496 10.0365 24.8494 17.0684 24.8494C24.102 24.8494 30.1308 26.7496 32.7124 29.46C33.6153 27.4539 34.0729 25.2763 34.0538 23.0768C33.9975 14.1904 26.4101 6.89932 17.0684 6.89932Z" fill="#008CD0"/>
<path d="M17.064 7.04546C7.75887 7.04546 0.194695 14.2885 0.126713 23.097C0.124503 23.3069 0.127266 23.5156 0.135004 23.7232C0.198575 25.6975 0.649833 27.64 1.46313 29.4404C4.03482 26.7533 10.052 24.868 17.064 24.868C24.0827 24.868 30.0982 26.7533 32.6699 29.4404C33.4869 27.6399 33.9393 25.6958 34.0014 23.7199C34.0069 23.5112 34.0086 23.3019 34.0063 23.092C33.9384 14.2851 26.3775 7.04049 17.064 7.04546Z" fill="#008ED2"/>
<path d="M17.0638 7.18622C7.78849 7.18622 0.242554 14.3861 0.16794 23.1135C0.165729 23.3212 0.167386 23.5277 0.172913 23.7331C0.234532 25.6965 0.685982 27.628 1.50104 29.4155C4.06112 26.7549 10.0684 24.8862 17.0638 24.8862C24.0593 24.8862 30.0599 26.7549 32.6249 29.4155C33.5299 27.4362 33.9852 25.2812 33.958 23.1052C33.8801 14.3828 26.3424 7.18622 17.0638 7.18622Z" fill="#0090D3"/>
<path d="M17.0626 7.32856C7.8171 7.32856 0.29935 14.4788 0.209813 23.125C0.207603 23.3337 0.209813 23.5392 0.216445 23.7413C0.274087 25.6957 0.724626 27.6186 1.54125 29.3955C4.0947 26.7564 10.0854 24.9026 17.0626 24.9026C24.0398 24.9026 30.0255 26.7564 32.5839 29.3955C33.4004 27.6175 33.8504 25.6934 33.907 23.738C33.9137 23.5314 33.9159 23.3238 33.9137 23.115C33.8009 14.4755 26.3081 7.32856 17.0626 7.32856Z" fill="#0091D4"/>
<path d="M17.0592 7.47119C7.8469 7.47119 0.352357 14.58 0.251213 23.1434C0.250108 23.3477 0.252872 23.5515 0.259504 23.7547C0.311173 25.6994 0.76091 27.613 1.581 29.3774C4.12781 26.7582 10.1019 24.921 17.0592 24.921C24.0198 24.921 29.9873 26.7582 32.5424 29.3774C33.3582 27.6098 33.8071 25.6954 33.8622 23.7497C33.8678 23.5454 33.8694 23.3405 33.8672 23.1351C33.7627 14.5717 26.2748 7.47119 17.0592 7.47119Z" fill="#0093D5"/>
<path d="M17.057 7.61673C7.8745 7.61673 0.404828 14.6742 0.293736 23.1564C0.260156 25.2955 0.711958 27.4143 1.61523 29.354C4.15873 26.7596 10.1146 24.9373 17.057 24.9373C23.9977 24.9373 29.9519 26.7596 32.497 29.354C33.3985 27.4103 33.8496 25.2884 33.8169 23.1464C33.7041 14.6676 26.2411 7.61673 17.057 7.61673Z" fill="#0095D7"/>
<path d="M17.0537 7.75907C7.90438 7.75907 0.459583 14.7701 0.336885 23.1728C0.334674 23.3749 0.336331 23.5759 0.341858 23.7758C0.395043 25.6987 0.841968 27.5903 1.65506 29.334C4.19193 26.7628 10.1328 24.9587 17.0537 24.9587C23.9795 24.9587 29.9171 26.7628 32.4556 29.334C33.3585 27.4044 33.8088 25.2943 33.7721 23.1645C33.6229 14.7652 26.208 7.75907 17.0537 7.75907Z" fill="#0097D8"/>
<path d="M17.0534 7.90667C7.93228 7.90667 0.533912 14.868 0.381368 23.1895C0.341327 25.3052 0.790138 27.4017 1.69291 29.3159C4.22149 26.7646 10.1475 24.9771 17.0534 24.9771C23.9593 24.9771 29.882 26.7646 32.4122 29.3159C33.318 27.3991 33.7681 25.2989 33.7271 23.1796C33.5712 14.8614 26.1729 7.90501 17.0534 7.90667Z" fill="#0099D9"/>
<path d="M17.0507 8.04607C7.96272 8.04607 0.564349 14.9627 0.421754 23.203C0.378852 25.3073 0.827939 27.3926 1.7333 29.293C4.25193 26.7665 10.1647 24.9922 17.0507 24.9922C23.9367 24.9922 29.8461 26.7665 32.3681 29.293C33.2791 27.3904 33.7284 25.3 33.6796 23.1914C33.5304 14.9544 26.1403 8.04607 17.0507 8.04607Z" fill="#009BDA"/>
<path d="M17.0487 8.19338C7.99228 8.19338 0.620438 15.0603 0.464578 23.2178C0.422896 25.3104 0.870865 27.3839 1.77281 29.2729C4.2848 26.7664 10.1826 25.0087 17.0487 25.0087C23.9182 25.0087 29.811 26.7664 32.328 29.2729C33.234 27.3806 33.681 25.3017 33.6329 23.2045C33.472 15.0537 26.1068 8.19007 17.0487 8.19338Z" fill="#009DDC"/>
<path d="M17.0471 8.33425C8.02382 8.33425 0.655294 15.1548 0.506067 23.2311C0.460706 25.3125 0.907803 27.3753 1.81098 29.2515C4.31634 26.7664 10.1976 25.0286 17.0471 25.0286C23.8967 25.0286 29.7746 26.7664 32.2849 29.2515C33.1871 27.371 33.6325 25.3043 33.5848 23.2195C33.4157 15.1482 26.0721 8.33425 17.0471 8.33425Z" fill="#009FDD"/>
<path d="M17.0454 8.47824C8.05027 8.47824 0.726516 15.2524 0.547443 23.2475C0.499499 25.317 0.945083 27.3681 1.84738 29.2314C4.34777 26.7696 10.2141 25.0467 17.0454 25.0467C23.8767 25.0467 29.7363 26.7696 32.2417 29.2314C33.1501 27.3655 33.5954 25.3085 33.54 23.2343C33.3543 15.2441 26.0388 8.47824 17.0454 8.47824Z" fill="#00A1DE"/>
<path d="M17.042 8.62243C8.08009 8.62243 0.777894 15.3485 0.592189 23.2658C0.538892 25.3221 0.981927 27.3609 1.88383 29.21C4.37925 26.7746 10.229 25.0683 17.042 25.0683C23.8568 25.0683 29.6999 26.7746 32.1986 29.21C33.1054 27.3561 33.5486 25.3102 33.4902 23.2476C33.2946 15.3403 26.0056 8.62243 17.042 8.62243Z" fill="#00A3E0"/>
<path d="M17.0403 8.76641C8.10824 8.76641 0.832571 15.4461 0.633601 23.2773C0.577781 25.3235 1.02048 27.3526 1.92359 29.1899C4.41238 26.7745 10.2455 25.0847 17.0403 25.0847C23.8335 25.0847 29.665 26.7745 32.1554 29.1899C32.9613 27.5498 33.4139 25.7424 33.4487 23.8538C33.4487 23.655 33.4471 23.4589 33.4438 23.2657C33.2149 15.4345 25.9708 8.76641 17.0403 8.76641Z" fill="#00A5E1"/>
<path d="M17.0393 8.91226C8.14032 8.91226 0.886205 15.5406 0.677286 23.2939C0.623187 25.3273 1.06476 27.3434 1.96396 29.1685C4.44611 26.7779 10.266 25.1013 17.0393 25.1013C23.8158 25.1013 29.6307 26.7779 32.1129 29.1685C33.0214 27.3408 33.4634 25.317 33.3996 23.2773C33.1807 15.5357 25.9398 8.91226 17.0393 8.91226Z" fill="#00A7E2"/>
<path d="M17.0351 9.05293C8.16601 9.05293 0.940085 15.6382 0.716244 23.3086C0.711822 23.4986 0.710164 23.688 0.711269 23.8769C0.741726 25.7083 1.18252 27.5096 2.00126 29.1484C4.47512 26.7777 10.2768 25.1211 17.0351 25.1211C23.7918 25.1211 29.5918 26.7777 32.0673 29.1484C32.8748 27.5249 33.3258 25.7423 33.3573 23.8719C33.3584 23.6797 33.3556 23.487 33.349 23.2937C33.1185 15.6266 25.9042 9.05293 17.0351 9.05293Z" fill="#00A9E3"/>
<path d="M17.0353 9.19877C8.19775 9.19877 0.995038 15.736 0.75959 23.322C0.756274 23.5108 0.755169 23.6997 0.756274 23.8885C0.783458 25.7088 1.22158 27.4995 2.03797 29.127C4.50852 26.7811 10.2952 25.136 17.0353 25.136C23.7754 25.136 29.5588 26.7811 32.0277 29.127C32.9324 27.3237 33.3713 25.323 33.3045 23.307C33.0624 15.7244 25.8729 9.19546 17.0353 9.19877Z" fill="#00ABE5"/>
<path d="M17.0326 9.33965C8.22649 9.33965 1.03041 15.8272 0.80325 23.3369C0.798828 23.5247 0.797723 23.7119 0.799934 23.8985C0.825091 25.7086 1.26226 27.4892 2.07832 29.1055C4.53891 26.7795 10.3124 25.1543 17.0326 25.1543C23.7544 25.1543 29.5229 26.7795 31.9835 29.1055C32.8886 27.3149 33.3272 25.3252 33.2586 23.3204C32.9867 15.8206 25.837 9.33965 17.0326 9.33965Z" fill="#00ADE6"/>
<path d="M17.027 9.48393C8.25574 9.48393 1.09945 15.9284 0.845766 23.352C0.840239 23.5364 0.83858 23.7225 0.840791 23.9103C0.863612 25.7108 1.29984 27.482 2.11586 29.0874C4.56982 26.783 10.3267 25.1727 17.027 25.1727C23.7306 25.1727 29.4875 26.783 31.9415 29.0874C32.8459 27.3081 33.2824 25.3281 33.2099 23.3338C32.9463 15.9168 25.8032 9.48393 17.027 9.48393Z" fill="#00AFE7"/>
<path d="M17.0237 9.62958C8.28396 9.62958 1.15089 16.0227 0.88891 23.3701C0.881173 23.5534 0.878409 23.7367 0.88062 23.9201C0.901041 25.711 1.33633 27.4728 2.15237 29.0674C4.60136 26.7861 10.3416 25.1941 17.0237 25.1941C23.7091 25.1941 29.4511 26.7861 31.8984 29.0674C32.8056 27.3023 33.2408 25.3329 33.1618 23.3502C32.8883 16.0144 25.7668 9.62958 17.0237 9.62958Z" fill="#00B2E9"/>
<path d="M17.024 9.77376C8.31412 9.77376 1.20757 16.1188 0.929013 23.3834C0.854803 25.3483 1.29063 27.299 2.19413 29.0459C4.63317 26.7878 10.3602 25.2074 17.024 25.2074C23.6928 25.2074 29.4149 26.7878 31.8556 29.0459C32.7635 27.2936 33.1984 25.335 33.1174 23.3635C32.8106 16.1072 25.7356 9.77045 17.024 9.77376Z" fill="#00B4EA"/>
<path d="M17.0204 9.91483C8.34361 9.91483 1.26028 16.2152 0.971772 23.3969C0.894025 25.3497 1.32782 27.289 2.23026 29.0229C4.66764 26.7897 10.3764 25.2258 17.0204 25.2258C23.6709 25.2258 29.3797 26.7897 31.8121 29.0229C32.7189 27.284 33.1529 25.3377 33.0706 23.3786C32.7722 16.2052 25.7004 9.91483 17.0204 9.91483Z" fill="#00B6EB"/>
<path d="M17.0209 10.0586C8.37068 10.0586 1.31554 16.3093 1.01543 23.4115C0.939159 25.3532 1.37183 27.2811 2.27059 29.0044C4.69969 26.7911 10.3919 25.247 17.0209 25.247C23.6499 25.247 29.3454 26.7911 31.7696 29.0044C32.6774 27.2785 33.1105 25.3428 33.0247 23.3949C32.7147 16.301 25.6695 10.0586 17.0209 10.0586Z" fill="#00B9ED"/>
<path d="M17.0172 10.2012C8.40182 10.2012 1.36657 16.4087 1.05983 23.4264C0.977133 25.3561 1.40734 27.2732 2.30671 28.9829C4.73082 26.7961 10.4081 25.262 17.0172 25.262C23.628 25.262 29.3103 26.7961 31.7277 28.9829C32.6351 27.2701 33.0668 25.3457 32.9779 23.4098C32.6563 16.3938 25.6343 10.2012 17.0172 10.2012Z" fill="#07BBEE"/>
<path d="M17.0154 10.347C8.43148 10.347 1.40452 16.5049 1.09943 23.4447C1.01431 25.3619 1.44486 27.2668 2.34631 28.9614C4.76214 26.7961 10.4245 25.2819 17.0154 25.2819C23.6079 25.2819 29.2736 26.7961 31.6861 28.9614C32.5935 27.2614 33.0232 25.3476 32.9297 23.4232C32.598 16.4933 25.6009 10.347 17.0154 10.347Z" fill="#0FBDEF"/>
<path d="M17.0128 10.4877C8.45874 10.4877 1.47323 16.6008 1.14327 23.4561C1.05453 25.363 1.48365 27.2584 2.38518 28.9414C4.79271 26.7977 10.4418 25.3 17.0128 25.3C23.5888 25.3 29.2362 26.7977 31.6421 28.9414C32.5485 27.253 32.9778 25.3499 32.884 23.4363C32.554 16.5892 25.5668 10.4877 17.0128 10.4877Z" fill="#19C0F1"/>
<path d="M17.0106 25.3169C23.5666 25.3169 29.2008 26.7964 31.5984 28.9219C32.4109 27.4126 32.8486 25.7411 32.8486 23.9966C32.8486 17.012 25.7619 10.6355 17.0106 10.6355C8.27081 10.6355 1.1709 17.012 1.1709 23.9966C1.1709 25.7411 1.61527 27.4143 2.42275 28.9219C4.82366 26.7964 10.4545 25.3169 17.0106 25.3169Z" fill="#1FC4F4"/>
<path d="M17.0119 25.3563C23.558 25.3563 29.1839 26.8274 31.5765 28.938C32.3873 27.437 32.8283 25.7804 32.8283 24.0425C32.8283 17.1077 25.75 10.7642 17.0119 10.7642C8.2804 10.7642 1.19043 17.1077 1.19043 24.0425C1.19374 25.7532 1.62461 27.4359 2.44394 28.938C4.84153 26.8274 10.4641 25.3563 17.0119 25.3563Z" fill="#33C6F4"/>
<path d="M17.0104 25.3997C23.5483 25.3997 29.1658 26.8625 31.5585 28.9565C32.3676 27.4655 32.807 25.8205 32.807 24.0975C32.807 17.2041 25.7369 10.8971 17.0104 10.8971C8.29223 10.8971 1.21387 17.2041 1.21387 24.0975C1.21387 25.8205 1.65823 27.4688 2.4624 28.9565C4.85834 26.8625 10.4743 25.3997 17.0104 25.3997Z" fill="#3FC7F4"/>
<path d="M17.0104 25.4411C23.5416 25.4411 29.1492 26.8924 31.5368 28.9731C32.346 27.4904 32.7854 25.8586 32.7854 24.1456C32.7854 17.2985 25.7252 11.0297 17.0104 11.0297C8.30376 11.0297 1.23535 17.2985 1.23535 24.1456C1.23535 25.8569 1.67972 27.4954 2.48057 28.9731C4.87319 26.8924 10.4808 25.4411 17.0104 25.4411Z" fill="#4AC8F5"/>
<path d="M17.0103 25.4805C23.5315 25.4805 29.1342 26.9268 31.5202 28.9927C32.3227 27.5215 32.7637 25.8963 32.7637 24.1983C32.7637 17.3943 25.7136 11.1635 17.0103 11.1635C8.3153 11.1635 1.25684 17.3943 1.25684 24.1983C1.25684 25.8963 1.7012 27.5215 2.5004 28.9927C4.8897 26.9268 10.4907 25.4805 17.0103 25.4805Z" fill="#54CAF5"/>
<path d="M17.0122 25.522C23.5235 25.522 29.1178 26.9567 31.4989 29.0093C32.3047 27.5497 32.7424 25.9328 32.7424 24.2447C32.7424 17.4887 25.7038 11.2928 17.0122 11.2928C8.32713 11.2928 1.28027 17.4887 1.28027 24.2447C1.28348 25.9124 1.71083 27.5519 2.52218 29.0093C4.90816 26.9567 10.5025 25.522 17.0122 25.522Z" fill="#5DCCF5"/>
<path d="M17.0108 25.5635C23.5155 25.5635 29.0999 26.9866 31.4793 29.026C32.2912 27.5807 32.7193 25.9519 32.7228 24.2945C32.7228 17.585 25.6909 11.4271 17.0108 11.4271C8.34071 11.4271 1.29883 17.585 1.29883 24.2945C1.30419 25.9525 1.73156 27.5818 2.54073 29.0293C4.9234 26.9866 10.5111 25.5652 17.0108 25.5635Z" fill="#64CDF6"/>
<path d="M17.0108 25.6066C23.5055 25.6066 29.0833 27.0231 31.4593 29.0459C32.2635 27.6062 32.7012 26.0142 32.7012 24.3459C32.7012 17.6827 25.6776 11.558 17.0108 11.558C8.34893 11.558 1.32031 17.6827 1.32031 24.3459C1.32031 26.0142 1.76136 27.6062 2.55724 29.0459C4.93991 27.0231 10.5194 25.6066 17.0108 25.6066Z" fill="#6DCFF6"/>
<path d="M17.011 25.6448C23.4974 25.6448 29.0669 27.0529 31.4413 29.0625C32.2388 27.6328 32.6799 26.0523 32.6799 24.3973C32.6799 17.7756 25.6645 11.6889 17.011 11.6889C8.36242 11.6889 1.34375 17.7756 1.34375 24.3973C1.34375 26.0523 1.78314 27.6344 2.57902 29.0625C4.95671 27.0529 10.5279 25.6481 17.011 25.6448Z" fill="#73D1F6"/>
<path d="M17.0106 25.6878C23.4871 25.6878 29.05 27.0844 31.4194 29.0807C32.2247 27.6678 32.6514 26.0712 32.658 24.4453C32.658 17.8716 25.6542 11.8231 17.0106 11.8231C8.37366 11.8231 1.36328 17.8716 1.36328 24.4453C1.36328 26.0904 1.80599 27.6609 2.59855 29.084C4.97293 27.0844 10.5341 25.6895 17.0106 25.6878Z" fill="#7AD2F7"/>
<path d="M17.0105 25.7278C23.4787 25.7278 29.0333 27.1161 31.4027 29.0991C32.1986 27.6893 32.6363 26.1287 32.6363 24.4952C32.6363 17.9662 25.6425 11.9525 17.0105 11.9525C8.38354 11.9525 1.38477 17.9662 1.38477 24.4952C1.38477 26.1287 1.8225 27.6909 2.61672 29.0991C4.98944 27.1161 10.544 25.7311 17.0105 25.7278Z" fill="#81D4F7"/>
<path d="M17.0112 25.769C23.4711 25.769 29.0173 27.1474 31.3818 29.1172C32.176 27.714 32.6154 26.165 32.6154 24.5464C32.6154 18.0622 25.6299 12.0865 17.0112 12.0865C8.39575 12.0865 1.40527 18.0638 1.40527 24.5464C1.40527 26.165 1.84632 27.7156 2.63723 29.1172C5.00497 27.1474 10.5546 25.7707 17.0112 25.769Z" fill="#88D6F8"/>
<path d="M17.0104 25.8123C23.4604 25.8123 28.9984 27.1807 31.3611 29.1372C32.1553 27.7423 32.5931 26.2049 32.5931 24.5963C32.5931 18.1584 25.6159 12.2176 17.0104 12.2176C8.40827 12.2176 1.42773 18.1584 1.42773 24.5963C1.42773 26.2082 1.86547 27.7439 2.65803 29.1372C5.0208 27.1807 10.5621 25.8123 17.0104 25.8123Z" fill="#8FD8F8"/>
<path d="M17.012 25.8518C23.452 25.8518 28.9817 27.2102 31.3428 29.1485C32.1337 27.7702 32.5714 26.2444 32.5714 24.6457C32.5714 18.2526 25.6075 12.3515 17.012 12.3515C8.41814 12.3515 1.44922 18.2526 1.44922 24.6457C1.44922 26.2444 1.88695 27.7718 2.6762 29.1519C5.03731 27.2102 10.5703 25.8518 17.012 25.8518Z" fill="#95DAF8"/>
<path d="M17.0103 25.8948C23.442 25.8948 28.965 27.2433 31.3212 29.1733C32.1104 27.8 32.5498 26.2824 32.5498 24.6953C32.5498 18.3486 25.5942 12.4823 17.0103 12.4823C8.43134 12.4823 1.4707 18.3486 1.4707 24.6953C1.4707 26.2857 1.90678 27.8 2.69437 29.1733C5.05548 27.2433 10.5802 25.8964 17.0103 25.8948Z" fill="#9ADCF9"/>
<path d="M17.0112 25.9329C23.4329 25.9329 28.9494 27.2748 31.3022 29.1883C32.0931 27.8282 32.5292 26.3222 32.5292 24.7434C32.5292 18.4431 25.5818 12.6165 17.0112 12.6165C8.44385 12.6165 1.49316 18.4431 1.49316 24.7434C1.49316 26.3222 1.92924 27.8298 2.71683 29.1899C5.07297 27.2748 10.5894 25.9379 17.0112 25.9329Z" fill="#A1DEF9"/>
<path d="M17.0128 25.9746C23.4246 25.9746 28.9311 27.3065 31.2822 29.2051C32.0715 27.8532 32.5076 26.3606 32.5076 24.795C32.5076 18.5377 25.5685 12.7476 17.0128 12.7476C8.45373 12.7476 1.51465 18.5377 1.51465 24.795C1.51465 26.3606 1.95073 27.8532 2.73666 29.2051C5.08948 27.3065 10.5993 25.9779 17.0128 25.9746Z" fill="#A7DFF9"/>
<path d="M17.0121 26.0176C23.4156 26.0176 28.9155 27.3379 31.2633 29.2266C32.0509 27.8813 32.4853 26.3986 32.4853 24.8463C32.4853 18.6338 25.5562 12.8768 17.0121 12.8768C8.46467 12.8768 1.53223 18.6371 1.53223 24.8463C1.53223 26.3986 1.97162 27.8813 2.75258 29.2266C5.10374 27.3379 10.6069 26.0176 17.0121 26.0176Z" fill="#ADE1FA"/>
<path d="M17.012 26.059C23.4089 26.059 28.8972 27.3695 31.2417 29.2415C32.026 27.9062 32.4654 26.4384 32.4654 24.8927C32.4654 18.7299 25.5445 13.011 17.012 13.011C8.47787 13.011 1.55371 18.7299 1.55371 24.8927C1.55371 26.4384 1.98813 27.9112 2.77406 29.2432C5.12025 27.3695 10.6151 26.059 17.012 26.059Z" fill="#B2E3FA"/>
<path d="M17.0125 26.1001C23.3995 26.1001 28.8828 27.4039 31.2223 29.2594C32.0066 27.9374 32.4427 26.4778 32.4427 24.9454C32.4427 18.8256 25.5334 13.1432 17.0125 13.1432C8.48834 13.1432 1.5791 18.8256 1.5791 24.9454C1.5791 26.4778 2.01186 27.9374 2.79448 29.2627C5.13735 27.4039 10.6256 26.1018 17.0125 26.1001Z" fill="#B9E5FB"/>
<path d="M17.0122 26.1399C23.3925 26.1399 28.8642 27.4338 31.2037 29.2793C31.9847 27.9656 32.4208 26.5143 32.4208 24.9951C32.4208 18.9217 25.5215 13.2741 17.0122 13.2741C8.49958 13.2741 1.59863 18.9217 1.59863 24.9951C1.59863 26.516 2.03139 27.9672 2.81235 29.2793C5.15356 27.4338 10.6335 26.1399 17.0122 26.1399Z" fill="#BEE7FB"/>
<path d="M17.0121 26.1813C23.3808 26.1813 28.8475 27.4636 31.1804 29.2959C31.9647 27.9954 32.4008 26.5541 32.4008 25.0432C32.4008 19.0162 25.5081 13.4067 17.0121 13.4067C8.51111 13.4067 1.62012 19.0179 1.62012 25.0432C1.62012 26.5541 2.05288 27.9954 2.83218 29.2959C5.17007 27.4636 10.6418 26.183 17.0121 26.1813Z" fill="#C3E9FB"/>
<path d="M17.0127 26.2247C23.3715 26.2247 28.8332 27.4971 31.1645 29.3145C31.9438 28.0222 32.3798 26.5958 32.3798 25.0932C32.3798 19.1126 25.4971 13.5396 17.0127 13.5396C8.52333 13.5396 1.64062 19.1126 1.64062 25.0932C1.64062 26.5958 2.07504 28.0222 2.85268 29.3145C5.18727 27.4971 10.6507 26.2264 17.0127 26.2247Z" fill="#CAEBFC"/>
<path d="M17.012 26.2625C23.3624 26.2625 28.8175 27.5315 31.1422 29.3307C31.9198 28.0501 32.3542 26.6336 32.3542 25.1459C32.3542 19.2067 25.4848 13.6718 17.012 13.6718C8.53419 13.6718 1.66309 19.2084 1.66309 25.1442C1.66309 26.6336 2.09419 28.0501 2.87017 29.334C5.20309 27.5315 10.6582 26.2675 17.012 26.2625Z" fill="#CFEDFC"/>
<path d="M17.0119 26.3073C23.3541 26.3073 28.7992 27.5614 31.1238 29.3506C31.9015 28.0749 32.3359 26.6701 32.3359 25.194C32.3359 19.3012 25.4714 13.801 17.0119 13.801C8.54738 13.801 1.68457 19.3028 1.68457 25.194C1.68457 26.6734 2.11567 28.0766 2.89 29.3506C5.21961 27.5614 10.6681 26.3089 17.0119 26.3073Z" fill="#D5EFFC"/>
<path d="M17.0128 26.3471C23.3483 26.3471 28.7835 27.5912 31.1049 29.3672C31.8808 28.1048 32.3153 26.7066 32.3153 25.2421C32.3153 19.399 25.4607 13.9352 17.0128 13.9352C8.55823 13.9352 1.70703 19.399 1.70703 25.2421C1.70703 26.7099 2.13813 28.1048 2.91412 29.3672C5.23709 27.5912 10.6789 26.3504 17.0128 26.3471Z" fill="#DBF1FD"/>
<path d="M17.0127 26.3868C23.3367 26.3868 28.7669 27.6193 31.0849 29.3854C31.8592 28.1329 32.2936 26.7463 32.2936 25.2934C32.2936 19.4933 25.4491 14.0644 17.0127 14.0644C8.57143 14.0644 1.72852 19.4933 1.72852 25.2934C1.72852 26.7463 2.15796 28.1329 2.93063 29.3887C5.25194 27.6193 10.6871 26.3917 17.0127 26.3868Z" fill="#E0F3FD"/>
<path d="M17.0124 26.4284C23.328 26.4284 28.7499 27.6544 31.0646 29.4038C31.8373 28.1596 32.2734 26.7863 32.2734 25.3449C32.2734 19.588 25.4354 14.1988 17.0124 14.1988C8.57935 14.1988 1.74805 19.5896 1.74805 25.3449C1.74805 26.7879 2.17915 28.1596 2.9485 29.4038C5.26982 27.6544 10.6951 26.4317 17.0124 26.4284Z" fill="#E6F6FD"/>
<path d="M17.0126 26.468C23.3199 26.468 28.7319 27.6857 31.0433 29.4186C31.8176 28.186 32.2487 26.8225 32.2487 25.3912C32.2487 19.6806 25.424 14.3312 17.0126 14.3312C8.59284 14.3312 1.77148 19.6839 1.77148 25.3912C1.77148 26.8275 2.20093 28.1893 2.97028 29.4219C5.28662 27.6857 10.7052 26.4713 17.0126 26.468Z" fill="#EBF7FE"/>
<path d="M17.0122 26.5114C23.3096 26.5114 28.715 27.7208 31.0264 29.4404C31.794 28.2178 32.2285 26.8626 32.2285 25.4429C32.2285 19.7803 25.4121 14.4641 17.0122 14.4641C8.60242 14.4641 1.79102 19.782 1.79102 25.4429C1.79102 26.866 2.2188 28.2178 2.98815 29.4404C5.30284 27.7208 10.7148 26.5131 17.0122 26.5114Z" fill="#F0F9FE"/>
<path d="M17.0122 26.554C23.3013 26.554 28.7 27.7518 31.0064 29.4565C31.7724 28.2439 32.2068 26.9003 32.2068 25.4921C32.2068 19.871 25.4004 14.5945 17.0122 14.5945C8.61728 14.5945 1.8125 19.876 1.8125 25.4921C1.8125 26.9036 2.24029 28.2439 3.00798 29.4565C5.31769 27.7518 10.7197 26.554 17.0122 26.554Z" fill="#F7FCFE"/>
<path d="M17.0124 26.5941C23.2932 26.5941 28.682 27.7836 30.985 29.4751C31.7527 28.2707 32.1855 26.9387 32.1855 25.5438C32.1855 19.9658 25.389 14.724 17.0124 14.724C8.62745 14.724 1.83594 19.9707 1.83594 25.5388C1.83594 26.9437 2.26206 28.2707 3.02644 29.4751C5.33284 27.7836 10.7299 26.5974 17.0124 26.5941Z" fill="white"/>
</g>
<path d="M17.0112 21.0275C11.5146 21.0275 6.41436 21.9585 2.20117 23.5373C3.47576 26.3984 5.55369 28.8286 8.18301 30.5332C10.8123 32.2379 13.8801 33.1438 17.0145 33.1411C20.1484 33.1417 23.2153 32.2349 25.8442 30.5305C28.4732 28.8261 30.5515 26.3971 31.8278 23.5373C27.6163 21.9585 22.5077 21.0275 17.0112 21.0275Z" fill="#0083CA"/>
</svg>
